<svg fill="#000000" height="800px" width="800px" xmlns="http://www.w3.org/2000/svg" viewBox="0 0 512 512" ><g>	<path class="st0" d="M442.539,73.946C397.7,36.018,333.59,13.863,255.205,13.881c-74.398,0-137.905,20.981-183.337,58.411 c-22.692,18.686-40.758,41.491-53.06,67.428C6.498,165.648-0.01,194.641,0,225.422c-0.018,37.214,7.777,71.586,23.511,101.577 c15,28.664,37.298,53.04,65.699,72.103c-6.715,28.269-16.148,68.67-16.148,68.689c-0.432,1.815-0.658,3.706-0.648,5.624 c-0.019,7.59,3.526,14.896,9.668,19.608l0.038,0.028l0.009,0.01c4.402,3.348,9.706,5.06,15,5.06c3.987,0,8.031-0.969,11.68-2.934 l0.367-0.188l0.357-0.216c0.01-0.01,5.069-3.01,12.856-7.618c11.671-6.903,29.435-17.407,45.291-26.745 c7.919-4.665,15.366-9.038,21.32-12.508c5.916-3.46,10.477-6.104,12.16-7.034l0.085-0.047l0.113-0.066 c22.1-12.526,39.704-14.633,53.849-14.708c58.692-0.085,121.212-11.464,171.13-42.62c24.894-15.602,46.561-36.413,61.806-63.056 c15.272-26.624,23.886-58.853,23.858-96.16C512.122,165.544,487.417,111.78,442.539,73.946z M454.709,301.24 c-8.812,15.375-20.37,28.316-34.232,39.282c-20.774,16.429-46.862,28.288-75.479,35.934c-28.598,7.664-59.642,11.088-89.792,11.078 c-18.517-0.075-44.379,3.414-72.761,19.683v-0.009c-3.14,1.749-10.128,5.822-19.345,11.219 c-13.222,7.759-30.62,18.019-45.15,26.614c3.545-15.094,7.655-32.576,10.73-45.413v-0.019c0.509-2.144,0.874-4.468,0.884-7.11 c0.037-3.724-0.922-8.266-3.075-12.046c-1.59-2.832-3.639-5.06-5.436-6.583c-2.736-2.285-4.796-3.273-5.944-3.903l-1.157-0.592 l-0.131-0.076C88.665,353.095,70.166,332.97,57.63,309.11c-12.517-23.896-19.1-51.78-19.11-83.689 c0.01-25.401,5.295-48.526,15.085-69.188c14.718-30.94,39.668-56.604,73.786-74.896c34.091-18.254,77.398-28.937,127.814-28.937 c71.276,0.019,125.933,20.031,162.45,50.952c36.47,31.025,55.702,72.799,55.824,120.864 C473.452,255.723,466.417,280.729,454.709,301.24z"/></g></svg>