<svg xmlns="http://www.w3.org/2000/svg" width="800" height="800" viewBox="0 0 32 32"><path d="M22.12 10.04h.02c.21 0 .4.07.57.18.1.1.19.24.2.4a2.55 2.55 0 0 1 .03.6v-.01c-.23 2.37-1.2 8.11-1.7 10.77-.2 1.12-.62 1.5-1.02 1.53-.87.08-1.53-.57-2.37-1.13-1.32-.86-2.06-1.4-3.34-2.24-1.48-.97-.52-1.51.32-2.39.22-.23 4.05-3.71 4.13-4.03a.3.3 0 0 0-.07-.26.34.34 0 0 0-.19-.05c-.04 0-.09 0-.13.02q-.2.04-6.31 4.17c-.45.35-1 .58-1.62.6-.87-.1-1.66-.3-2.4-.57l.07.02c-.94-.3-1.69-.46-1.62-.98q.05-.4 1.11-.83 6.55-2.85 8.74-3.76c1.6-.85 3.47-1.55 5.42-2.01l.16-.03zm-6.19-9.01a15.06 15.06 0 1 0 .07 0h-.07z"/></svg>